<?xml version="1.0" standalone="no"?>
<!DOCTYPE svg PUBLIC "-//W3C//DTD SVG 20010904//EN"
 "http://www.w3.org/TR/2001/REC-SVG-20010904/DTD/svg10.dtd">
<svg version="1.0" xmlns="http://www.w3.org/2000/svg"
 width="476.000000pt" height="476.000000pt" viewBox="0 0 476.000000 476.000000"
 preserveAspectRatio="xMidYMid meet">
<metadata>
Created by potrace 1.11, written by Peter Selinger 2001-2013
</metadata>
<g transform="translate(0.000000,476.000000) scale(0.100000,-0.100000)"
fill="#000000" stroke="none">
<path d="M3260 4122 c0 -253 -59 -436 -181 -566 -33 -35 -73 -69 -89 -74 -29
-11 -29 -10 -22 21 10 43 9 151 -2 212 l-9 50 -28 -108 c-55 -210 -150 -327
-283 -351 -34 -7 -38 -5 -32 10 22 58 33 181 27 314 -3 61 -3 63 -12 30 -36
-135 -56 -195 -89 -265 -70 -145 -126 -184 -210 -142 -76 38 -139 175 -126
277 l6 45 -24 -46 c-13 -25 -29 -73 -35 -106 -16 -88 0 -148 65 -249 l16 -24
-52 0 c-79 0 -129 19 -177 67 -60 62 -98 153 -112 273 l-7 55 -19 -40 c-15
-31 -19 -63 -20 -148 0 -120 -2 -120 -54 -17 -84 165 -87 300 -12 455 29 59
58 98 110 149 38 38 82 76 96 84 38 19 25 25 -26 12 -217 -58 -359 -252 -359
-490 0 -259 153 -453 375 -477 82 -9 95 -28 40 -57 -19 -11 -35 -22 -35 -25
-1 -21 -35 -42 -81 -51 -82 -16 -99 -31 -99 -90 l0 -50 65 0 c37 0 65 4 65 10
0 6 -27 10 -60 10 l-60 0 0 33 c0 17 4 38 8 45 14 21 71 32 197 39 107 5 122
8 140 28 11 12 34 29 51 38 30 16 33 15 78 -13 59 -38 84 -39 92 -2 34 152 53
169 219 197 425 73 684 258 750 536 33 141 8 332 -64 489 l-21 45 0 -133z m55
-49 c69 -264 23 -469 -139 -626 -132 -128 -297 -196 -610 -252 -50 -9 -94 -24
-119 -41 -43 -28 -76 -90 -77 -142 0 -46 -22 -49 -80 -12 -45 29 -53 31 -79
20 -16 -6 -41 -25 -57 -41 -26 -27 -32 -29 -106 -29 -79 0 -79 0 -64 21 8 12
28 30 45 40 21 12 31 27 31 42 0 23 -5 25 -72 31 -226 21 -378 210 -378 472 0
122 63 276 147 356 39 37 122 90 163 103 23 7 23 7 4 -18 -11 -14 -21 -23 -23
-22 -9 9 -105 -117 -135 -177 -67 -132 -71 -250 -16 -395 27 -71 125 -231 135
-221 2 2 -3 24 -12 48 -21 63 -27 157 -13 210 l12 45 18 -67 c49 -188 154
-288 302 -288 50 0 58 20 25 68 -56 81 -72 173 -46 267 l11 40 18 -72 c36
-139 124 -229 205 -209 66 17 140 122 191 274 l33 97 0 -75 c1 -70 -16 -171
-34 -214 -8 -18 -5 -19 44 -13 131 16 237 134 296 332 l19 60 6 -45 c4 -25 4
-72 -1 -105 -5 -33 -9 -63 -9 -67 -1 -30 95 26 148 86 52 59 109 166 136 258
28 91 51 290 40 343 -5 23 -3 27 6 18 7 -6 23 -51 35 -100z"/>
<path d="M2663 3120 c-88 -18 -169 -76 -222 -158 -37 -58 -56 -109 -76 -210
-17 -83 -38 -112 -82 -112 -14 0 -66 11 -116 24 -51 14 -122 30 -159 36 -70
12 -81 21 -50 39 12 8 -5 10 -65 11 l-83 0 0 -53 0 -53 123 -28 c214 -48 351
-98 364 -132 8 -23 -24 -51 -83 -74 -29 -11 -149 -44 -266 -74 -371 -95 -438
-115 -438 -127 0 -4 33 2 73 13 204 54 302 71 422 72 139 1 202 -12 296 -61
116 -60 196 -158 266 -326 l34 -82 -6 100 c-3 55 -10 104 -15 109 -5 5 -6 -19
-4 -55 l4 -64 -19 41 c-114 244 -301 361 -563 352 -53 -2 -95 -2 -93 0 2 2 39
12 82 23 244 62 348 112 324 158 -22 40 -207 107 -405 147 l-87 17 3 41 c2 23
6 40 11 39 4 -2 27 -3 52 -3 34 0 43 -3 39 -14 -4 -10 8 -15 43 -20 26 -4 107
-23 178 -41 193 -51 207 -44 239 120 32 156 98 252 211 306 70 34 123 40 60 7
-22 -11 -42 -24 -45 -28 -3 -3 -12 -9 -20 -12 -21 -8 -69 -78 -85 -126 -8 -21
-21 -81 -30 -133 -8 -52 -21 -107 -27 -122 -13 -34 -45 -54 -61 -38 -30 30
-23 4 14 -50 66 -96 110 -226 160 -474 6 -33 14 -54 16 -47 8 21 -46 258 -78
345 -16 45 -44 108 -62 140 l-34 58 33 33 c25 25 34 45 40 84 4 31 12 52 19
52 22 0 109 -77 158 -139 49 -62 99 -160 123 -242 32 -108 36 -297 9 -425 -11
-51 11 -4 26 56 9 33 14 106 14 185 -1 106 -5 141 -23 193 -49 145 -163 297
-275 369 -37 23 -38 26 -32 66 26 160 99 236 260 272 33 7 51 13 40 14 -11 1
-36 3 -55 5 -19 3 -54 1 -77 -4z"/>
<path d="M2220 2906 c0 -2 9 -6 20 -9 11 -3 18 -1 14 4 -5 9 -34 13 -34 5z"/>
<path d="M2655 2310 c3 -14 13 -56 22 -95 20 -92 20 -300 0 -375 -20 -71 -13
-78 8 -8 38 119 28 340 -20 464 -9 21 -13 28 -10 14z"/>
<path d="M3770 1360 c0 -239 2 -280 15 -280 11 0 15 18 17 80 l3 81 90 -81
c50 -44 99 -80 110 -80 18 1 16 4 -10 27 -16 14 -61 55 -99 91 l-70 65 80 74
c43 40 83 73 87 73 5 0 6 4 2 10 -10 16 -37 -1 -117 -73 l-78 -69 0 181 c0
154 -2 181 -15 181 -13 0 -15 -38 -15 -280z"/>
<path d="M750 1340 c0 -222 2 -260 15 -260 12 0 15 23 17 128 l3 127 163 3
162 2 0 -130 c0 -109 2 -130 15 -130 13 0 15 36 15 260 0 224 -2 260 -15 260
-13 0 -15 -20 -15 -120 l0 -120 -162 2 -163 3 -3 118 c-2 95 -5 117 -17 117
-13 0 -15 -38 -15 -260z"/>
<path d="M1421 1576 c-14 -17 -7 -36 14 -36 22 0 29 20 13 36 -13 13 -16 13
-27 0z"/>
<path d="M2563 1583 c-22 -8 -15 -43 7 -43 13 0 20 7 20 19 0 22 -9 30 -27 24z"/>
<path d="M2878 1473 c-3 -46 -4 -48 -35 -51 -18 -2 -33 -7 -33 -12 0 -5 15
-10 33 -12 l32 -3 5 -143 c5 -136 6 -145 29 -163 24 -20 47 -24 75 -13 28 11
17 23 -21 26 -55 4 -64 28 -61 173 l3 120 48 3 c60 4 62 22 2 22 -25 0 -46 5
-46 10 -1 6 -3 15 -4 20 -1 6 -3 24 -4 40 -2 48 -20 35 -23 -17z"/>
<path d="M1791 1401 l-31 -29 0 24 c0 15 -6 24 -15 24 -13 0 -15 -26 -15 -170
0 -144 2 -170 15 -170 12 0 15 18 15 103 0 56 5 119 10 139 12 43 61 88 96 88
13 0 24 5 24 10 0 6 -15 10 -34 10 -24 0 -43 -9 -65 -29z"/>
<path d="M3295 1420 c-11 -4 -32 -21 -47 -36 -80 -86 -59 -238 42 -291 67 -36
138 -27 198 26 44 38 20 43 -34 6 -46 -31 -115 -34 -160 -6 -32 20 -64 74 -64
110 0 20 4 21 145 21 l145 0 0 31 c0 83 -70 149 -155 148 -27 0 -59 -4 -70 -9z
m120 -24 c35 -15 75 -67 75 -98 0 -16 -13 -18 -130 -18 -84 0 -130 4 -130 10
0 32 55 100 90 113 27 10 60 7 95 -7z"/>
<path d="M1420 1250 c0 -144 2 -170 15 -170 13 0 15 26 15 170 0 144 -2 170
-15 170 -13 0 -15 -26 -15 -170z"/>
<path d="M2050 1408 c2 -31 127 -323 141 -326 11 -2 32 42 77 160 34 90 62
166 62 171 0 4 -6 7 -13 7 -7 0 -36 -62 -66 -145 -30 -80 -57 -143 -60 -140
-3 3 -31 67 -61 142 -30 75 -61 138 -67 141 -7 2 -13 -2 -13 -10z"/>
<path d="M2560 1251 c0 -147 2 -171 15 -171 13 0 15 23 13 167 -2 122 -6 167
-15 171 -10 3 -13 -35 -13 -167z"/>
</g>
</svg>
